<svg xmlns="http://www.w3.org/2000/svg" viewBox="0 0 534.82 523.43"><defs><style>.cls-1{fill:#fff;}.cls-2{fill:#e20613;}.cls-3{fill:#009540;}</style></defs><g id="Layer_2" data-name="Layer 2"><g id="Laag_1" data-name="Laag 1"><polygon class="cls-1" points="128.71 261.58 71.5 317.6 14.29 261.58 71.5 205.57 128.71 261.58"/><path class="cls-2" d="M71.5,331.6,0,261.58l71.5-70,71.51,70Zm-42.91-70,42.91,42,42.92-42-42.92-42Z"/><polygon class="cls-1" points="520.53 261.58 463.32 317.6 406.11 261.58 463.32 205.57 520.53 261.58"/><path class="cls-2" d="M463.32,331.6l-71.5-70,71.5-70,71.5,70Zm-42.92-70,42.92,42,42.92-42-42.92-42Z"/><polygon class="cls-1" points="324.89 70.02 267.68 126.03 210.47 70.02 267.68 14 324.89 70.02"/><path class="cls-2" d="M267.68,140,196.17,70,267.68,0l71.5,70ZM224.76,70l42.92,42L310.6,70,267.68,28Z"/><polygon class="cls-1" points="324.62 453.42 267.41 509.43 210.2 453.42 267.41 397.4 324.62 453.42"/><path class="cls-2" d="M267.41,523.43l-71.5-70,71.5-70,71.51,70Zm-42.91-70,42.91,42,42.92-42-42.92-42Z"/><polygon class="cls-1" points="403.21 47.88 267.32 180.94 131.79 48.23 49.42 128.89 184.95 261.59 49.44 394.28 131.81 474.94 267.32 342.25 403.19 475.29 485.56 394.63 349.69 261.59 485.58 128.54 403.21 47.88"/><path class="cls-3" d="M403.19,496.28l-135.87-133L131.81,495.93,28,394.28,163.51,261.59,28,128.89,131.79,27.24l135.53,132.7,135.89-133L507,128.54l-135.89,133L507,394.63Zm-135.87-175L403.19,454.3l60.93-59.67-135.87-133,135.89-133L403.21,68.88,267.32,201.93,131.79,69.23,70.86,128.89l135.53,132.7L70.88,394.28l60.93,59.66Z"/></g></g></svg>