<svg xmlns="http://www.w3.org/2000/svg" xmlns:xlink="http://www.w3.org/1999/xlink" viewBox="0 0 436.03 224.78"><defs><style>.cls-1{fill:url(#linear-gradient);}.cls-2{fill:url(#linear-gradient-2);}.cls-3{fill:url(#linear-gradient-3);}.cls-4{fill:url(#New_Gradient_Swatch_1);}</style><linearGradient id="linear-gradient" y1="114.97" x2="178.05" y2="114.97" gradientUnits="userSpaceOnUse"><stop offset="0" stop-color="#0061ff"/><stop offset="1" stop-color="#60efff"/></linearGradient><linearGradient id="linear-gradient-2" x1="222.2" y1="29.49" x2="222.2" y2="0" xlink:href="#linear-gradient"/><linearGradient id="linear-gradient-3" x1="232.35" y1="140.75" x2="212.05" y2="140.75" xlink:href="#linear-gradient"/><linearGradient id="New_Gradient_Swatch_1" x1="417.11" y1="235.7" x2="285.12" y2="7.07" xlink:href="#linear-gradient"/></defs><g id="Layer_2" data-name="Layer 2"><g id="Layer_1-2" data-name="Layer 1"><path class="cls-1" d="M78.79,5.16,0,224.78H21.11l24.33-70.25H132l24,70.25h22.07L99.26,5.16ZM51.24,137.61,88.3,30.45H89L126,137.61Z"/><path class="cls-2" d="M222.2,0a14.75,14.75,0,1,0,14.67,14.82A14.75,14.75,0,0,0,222.2,0Z"/><rect class="cls-3" x="212.05" y="56.72" width="20.3" height="168.06"/><path class="cls-4" d="M388.81,129.23c22.4-6.77,43.35-25.14,43.35-60.59C432.16,34,409.6,5.16,364,5.16H288.43V224.78h20.46V133.42h59.3l44.15,91.36H436Zm-28.36-14.5H308.89V23.85h52.37c30.45,0,49.79,16.27,49.79,46.08C411.05,98.13,393,114.73,360.45,114.73Z"/></g></g></svg>